<?xml version="1.0" encoding="UTF-8"?>
<svg version="1.1" xmlns="http://www.w3.org/2000/svg" width="512" height="512">
<path d="M0 0 C168.96 0 337.92 0 512 0 C512 168.96 512 337.92 512 512 C343.04 512 174.08 512 0 512 C0 343.04 0 174.08 0 0 Z " fill="#209CEE" transform="translate(0,0)"/>
<path d="M0 0 C2.37986632 0.00307615 4.75973447 0.0049381 7.13960266 0.00567627 C12.11405428 0.01024647 17.08834112 0.02451575 22.06274414 0.046875 C28.2692753 0.07470967 34.47567714 0.08593975 40.68226433 0.09072113 C56.43072393 0.10372782 72.17794078 0.19031613 87.92578125 0.328125 C89.14884224 0.33828644 90.37190323 0.34844788 91.63202667 0.35891724 C98.85882316 0.42092326 106.0850156 0.5015761 113.31128883 0.60868073 C115.54610877 0.64009562 117.78100057 0.66679406 120.0159359 0.68849945 C123.08890867 0.71991559 126.16101791 0.76997077 129.23364258 0.82519531 C130.13294054 0.8307972 131.0322385 0.83639908 131.95878792 0.84217072 C136.99384196 0.95671981 140.57597293 1.50661895 144.92578125 4.328125 C146.84026004 8.15708259 146.48977477 12.50322357 145.25244141 16.50683594 C144.31734189 18.77844355 143.30419702 20.98993852 142.23828125 23.203125 C141.87105957 23.99033936 141.50383789 24.77755371 141.12548828 25.58862305 C140.39761072 27.14188751 139.66312447 28.69207586 138.92138672 30.23876953 C138.08484763 31.99431184 137.28419317 33.76689063 136.4921875 35.54296875 C133.38665417 42.31404962 130.39053292 45.6911093 123.51953125 48.9375 C117.83977138 50.97300973 112.20697174 50.72571193 106.23828125 50.640625 C104.92859375 50.63224609 103.61890625 50.62386719 102.26953125 50.61523438 C76.81977595 50.37905927 51.35827068 49.24746064 25.92578125 48.328125 C25.87926926 48.90881744 25.83275726 49.48950989 25.78483582 50.08779907 C24.77961026 62.41056032 23.45519532 74.53748259 21.23828125 86.703125 C20.9756623 88.18546905 20.71397366 89.66797817 20.453125 91.15063477 C19.90266009 94.27169267 19.34724358 97.39180594 18.78759766 100.51123047 C17.45993462 107.91758711 16.16499404 115.32970383 14.86767578 122.74142456 C14.57282991 124.42565013 14.27774487 126.10983385 13.98242188 127.79397583 C10.85654145 145.62126261 7.82161858 163.4619812 4.92578125 181.328125 C4.74450684 182.43607422 4.56323242 183.54402344 4.37646484 184.68554688 C1.8922315 200.02151516 -0.00220927 215.43040637 -1.85229492 230.85348511 C-2.1208874 233.09193597 -2.39133227 235.33016552 -2.66381836 237.56814575 C-4.08228788 249.27018867 -5.3429842 260.91674108 -5.7742157 272.70188904 C-5.94084836 277.25479885 -6.31840148 281.7253919 -6.85401917 286.24958801 C-7.14958805 289.03956081 -7.21831555 291.80886566 -7.25 294.61328125 C-7.27384766 295.72123047 -7.29769531 296.82917969 -7.32226562 297.97070312 C-7.36530438 300.25436555 -7.39651661 302.5382809 -7.41601562 304.82226562 C-7.63032056 313.37951134 -8.96874649 319.44898259 -15.13671875 325.578125 C-25.79386147 333.89204818 -41.50966639 335.54543102 -54.63671875 335.765625 C-55.38638916 335.78786133 -56.13605957 335.81009766 -56.90844727 335.83300781 C-62.0510684 335.81217577 -65.02446337 334.74778249 -69.07421875 331.328125 C-72.81850248 324.35601046 -73.22999809 317.57746953 -73.2421875 309.80078125 C-73.24637695 308.98340988 -73.25056641 308.16603851 -73.25488281 307.32389832 C-73.26464685 304.67942471 -73.26467405 302.03511364 -73.26171875 299.390625 C-73.26144684 298.48896606 -73.26117493 297.58730713 -73.26089478 296.6583252 C-73.23331504 276.82474538 -71.69166868 257.55549611 -68.49951172 237.98144531 C-68.04721797 235.1596724 -67.62346115 232.33451504 -67.203125 229.5078125 C-63.67685354 206.13505774 -58.3874802 183.18137723 -52.77685547 160.23291016 C-52.10095848 157.43867027 -51.44463295 154.64072688 -50.796875 151.83984375 C-47.94869561 139.54454209 -44.69423436 127.41842687 -41.07421875 115.328125 C-40.73874023 114.20277344 -40.40326172 113.07742187 -40.05761719 111.91796875 C-33.63395152 90.47876777 -26.30293291 69.71781534 -17.07421875 49.328125 C-43.17447649 50.15277769 -67.50931297 57.59496987 -92.36962891 64.94238281 C-121.28946991 73.48265743 -121.28946991 73.48265743 -134.07421875 72.328125 C-136.07421875 70.328125 -136.07421875 70.328125 -136.57421875 67.828125 C-134.52720511 53.49902952 -119.00827707 40.33623776 -108.11328125 32.0859375 C-74.9928741 8.45186918 -40.37035997 -0.23447443 0 0 Z " fill="#FDFEFE" transform="translate(251.07421875,88.671875)"/>
<path d="M0 0 C0.33 0 0.66 0 1 0 C1 13.53 1 27.06 1 41 C-12.53 41 -26.06 41 -40 41 C-36.77794772 39.38897386 -33.66489916 38.09649079 -30.3125 36.8125 C-17.71232801 31.5611525 -8.22889841 22.19948407 -2.96484375 9.59765625 C-1.78548854 6.42246916 -0.80417774 3.28981803 0 0 Z " fill="#000000" transform="translate(511,471)"/>
<path d="M0 0 C1.61102614 3.22205228 2.90350921 6.33510084 4.1875 9.6875 C9.4388475 22.28767199 18.80051593 31.77110159 31.40234375 37.03515625 C34.57753084 38.21451146 37.71018197 39.19582226 41 40 C41 40.33 41 40.66 41 41 C27.47 41 13.94 41 0 41 C0 27.47 0 13.94 0 0 Z " fill="#000000" transform="translate(0,471)"/>
<path d="M0 0 C13.53 0 27.06 0 41 0 C41 13.53 41 27.06 41 41 C39.38897386 37.77794772 38.09649079 34.66489916 36.8125 31.3125 C31.5611525 18.71232801 22.19948407 9.22889841 9.59765625 3.96484375 C6.42246916 2.78548854 3.28981803 1.80417774 0 1 C0 0.67 0 0.34 0 0 Z " fill="#000000" transform="translate(471,0)"/>
<path d="M0 0 C13.53 0 27.06 0 41 0 C37.77794772 1.61102614 34.66489916 2.90350921 31.3125 4.1875 C18.71232801 9.4388475 9.22889841 18.80051593 3.96484375 31.40234375 C2.78548854 34.57753084 1.80417774 37.71018197 1 41 C0.67 41 0.34 41 0 41 C0 27.47 0 13.94 0 0 Z " fill="#000000" transform="translate(0,0)"/>
</svg>
